<?xml version="1.0" standalone="no"?><!DOCTYPE svg PUBLIC "-//W3C//DTD SVG 1.1//EN" "http://www.w3.org/Graphics/SVG/1.1/DTD/svg11.dtd"><svg t="1643627683672" class="icon" viewBox="0 0 1024 1024" version="1.1" xmlns="http://www.w3.org/2000/svg" p-id="4978" width="128" height="128" xmlns:xlink="http://www.w3.org/1999/xlink"><defs><style type="text/css"></style></defs><path d="M640 512c0-35.328-12.544-65.47456-37.504-90.43456A123.34592 123.34592 0 0 0 512 384c-35.328 0-65.536 12.48256-90.496 37.504C396.544 446.52544 384 476.672 384 512c0 35.38944 12.48256 65.536 37.504 90.496C446.464 627.456 476.672 640 512 640s65.46944-12.48256 90.496-37.504C627.456 577.536 640 547.38944 640 512z m256 56.50944c0 4.03456-1.28 7.87456-4.02944 11.52a15.14496 15.14496 0 0 1-9.984 6.528l-92.48256 13.952a320.07168 320.07168 0 0 1-19.52256 45.50656c11.64288 16.64 29.50656 39.68 53.504 68.99712 3.12832 3.41504 4.92544 7.84384 5.05344 12.48256a16.72192 16.72192 0 0 1-4.48 11.52c-9.02656 12.34944-25.6 30.336-49.536 54.016-24.064 23.68-39.68 35.52256-47.04256 35.52256a24.42752 24.42752 0 0 1-12.99456-4.48l-68.992-54.08256c-14.72 7.68-29.824 14.08-45.50656 19.00544-5.30944 45.37856-10.17344 76.35456-14.53056 92.99456-2.29888 9.344-8.32 14.01344-17.98144 14.01344H456.51456a18.90816 18.90816 0 0 1-12.288-4.224 14.73024 14.73024 0 0 1-5.76-10.752L424.51456 788.992a309.7088 309.7088 0 0 1-45.056-18.56L308.992 824.00256a17.98144 17.98144 0 0 1-12.48256 4.48 17.21344 17.21344 0 0 1-12.544-5.504c-41.984-37.94944-69.44256-65.92-82.432-83.96288a19.584 19.584 0 0 1 0.45056-23.04c5.05344-6.97856 13.50144-18.048 25.53344-33.28 12.032-15.104 20.992-26.88 27.008-35.2a247.5264 247.5264 0 0 1-20.48-49.54112l-91.52-13.44a15.78496 15.78496 0 0 1-10.496-6.272 18.92352 18.92352 0 0 1-4.03456-11.776V455.48544c0-3.968 1.28-7.808 4.03456-11.52a14.97088 14.97088 0 0 1 9.472-6.46144L234.496 423.48544c4.67456-15.36 11.136-30.65344 19.456-46.01344A1129.1392 1129.1392 0 0 0 200.448 308.48a18.75456 18.75456 0 0 1-4.992-11.96544c0-3.328 1.47456-7.168 4.48-11.52 8.704-12.032 25.088-29.952 49.28-53.76s39.936-35.77856 47.29856-35.77856c4.28544 0 8.64256 1.664 12.99456 5.05856l68.992 53.504a278.3744 278.3744 0 0 1 45.44-19.00544c5.376-45.37344 10.24-76.35456 14.53056-92.99456C440.832 132.67456 446.78656 128 456.51456 128h110.976c4.66944 0 8.76544 1.408 12.28288 4.224a14.72 14.72 0 0 1 5.76 10.752l13.95712 92.032c16.32256 5.31456 31.36 11.52 44.98944 18.56l71.04-53.56544a16.24576 16.24576 0 0 1 11.97056-4.48c4.352 0 8.50944 1.664 12.53888 4.992 43.008 39.68 70.46656 68.03456 82.43712 84.992 2.49344 3.10784 3.74272 7.02976 3.52256 11.008 0 4.03456-1.28 7.87456-3.968 11.52-5.05344 7.04-13.50656 18.11456-25.53344 33.28s-20.992 26.88-27.008 35.2c8.704 16.64 15.488 33.024 20.48 49.024l91.52 14.01856a15.64672 15.64672 0 0 1 10.50112 6.20544c2.65216 3.37408 4.0704 7.552 4.02944 11.84256v110.976-0.07168z" fill="#38A65A" p-id="4979"></path></svg>